<svg width="75" height="75" viewBox="0 0 75 75" fill="none" xmlns="http://www.w3.org/2000/svg">
<circle cx="37.5" cy="37.5" r="37.5" fill="url(#paint0_linear_49_235)"/>
<circle cx="38" cy="38" r="33" fill="black"/>
<path d="M21.2262 46.3356C19.9435 46.3306 18.8398 46.0149 17.9151 45.3885C16.9954 44.7621 16.2869 43.8548 15.7898 42.6665C15.2976 41.4783 15.054 40.049 15.0589 38.3786C15.0589 36.7131 15.305 35.2937 15.7972 34.1204C16.2944 32.9471 17.0028 32.0547 17.9226 31.4432C18.8473 30.8267 19.9485 30.5185 21.2262 30.5185C22.5039 30.5185 23.6026 30.8267 24.5224 31.4432C25.4471 32.0597 26.158 32.9545 26.6552 34.1278C27.1523 35.2962 27.3984 36.7131 27.3935 38.3786C27.3935 40.054 27.1449 41.4858 26.6477 42.674C26.1555 43.8622 25.4496 44.7695 24.5298 45.396C23.6101 46.0224 22.5089 46.3356 21.2262 46.3356ZM21.2262 43.6584C22.1012 43.6584 22.7997 43.2184 23.3217 42.3384C23.8438 41.4585 24.1023 40.1385 24.0973 38.3786C24.0973 37.2202 23.978 36.2557 23.7393 35.4851C23.5057 34.7145 23.1726 34.1353 22.7401 33.7475C22.3125 33.3597 21.8079 33.1658 21.2262 33.1658C20.3562 33.1658 19.6602 33.6009 19.1381 34.4709C18.6161 35.3409 18.3526 36.6435 18.3477 38.3786C18.3477 39.5518 18.4645 40.5312 18.6982 41.3168C18.9368 42.0973 19.2724 42.6839 19.7049 43.0767C20.1374 43.4645 20.6445 43.6584 21.2262 43.6584ZM36.3778 30.0114L31.4559 48.2969H28.719L33.6409 30.0114H36.3778ZM44.5231 30.7273V46H41.294V33.7923H41.2045L37.707 35.9847V33.1211L41.4879 30.7273H44.5231ZM54.1412 46.3356C52.8586 46.3306 51.7549 46.0149 50.8302 45.3885C49.9104 44.7621 49.202 43.8548 48.7048 42.6665C48.2126 41.4783 47.969 40.049 47.974 38.3786C47.974 36.7131 48.2201 35.2937 48.7123 34.1204C49.2094 32.9471 49.9179 32.0547 50.8376 31.4432C51.7623 30.8267 52.8635 30.5185 54.1412 30.5185C55.4189 30.5185 56.5177 30.8267 57.4374 31.4432C58.3621 32.0597 59.0731 32.9545 59.5702 34.1278C60.0674 35.2962 60.3135 36.7131 60.3085 38.3786C60.3085 40.054 60.0599 41.4858 59.5628 42.674C59.0706 43.8622 58.3646 44.7695 57.4449 45.396C56.5251 46.0224 55.4239 46.3356 54.1412 46.3356ZM54.1412 43.6584C55.0162 43.6584 55.7148 43.2184 56.2368 42.3384C56.7588 41.4585 57.0173 40.1385 57.0123 38.3786C57.0123 37.2202 56.893 36.2557 56.6544 35.4851C56.4207 34.7145 56.0876 34.1353 55.6551 33.7475C55.2275 33.3597 54.7229 33.1658 54.1412 33.1658C53.2712 33.1658 52.5752 33.6009 52.0532 34.4709C51.5312 35.3409 51.2677 36.6435 51.2627 38.3786C51.2627 39.5518 51.3795 40.5312 51.6132 41.3168C51.8518 42.0973 52.1874 42.6839 52.6199 43.0767C53.0525 43.4645 53.5596 43.6584 54.1412 43.6584Z" fill="white"/>
<defs>
<linearGradient id="paint0_linear_49_235" x1="37.5" y1="0" x2="37.5" y2="75" gradientUnits="userSpaceOnUse">
<stop offset="0.0817308"/>
<stop offset="0.394231" stop-color="#300001"/>
</linearGradient>
</defs>
</svg>
