<svg width="75" height="75" viewBox="0 0 75 75" fill="none" xmlns="http://www.w3.org/2000/svg">
<circle cx="37.5" cy="37.5" r="37.5" fill="url(#paint0_linear_49_237)"/>
<circle cx="38" cy="38" r="33" fill="black"/>
<path d="M23.8825 29.7273V45H20.6534V32.7923H20.5639L17.0664 34.9847V32.1211L20.8473 29.7273H23.8825ZM34.1942 29.0114L29.2723 47.2969H26.5354L31.4573 29.0114H34.1942ZM42.3395 29.7273V45H39.1104V32.7923H39.021L35.5234 34.9847V32.1211L39.3043 29.7273H42.3395ZM51.9577 45.3356C50.675 45.3306 49.5713 45.0149 48.6466 44.3885C47.7268 43.7621 47.0184 42.8548 46.5212 41.6665C46.029 40.4783 45.7854 39.049 45.7904 37.3786C45.7904 35.7131 46.0365 34.2937 46.5287 33.1204C47.0258 31.9471 47.7343 31.0547 48.654 30.4432C49.5787 29.8267 50.68 29.5185 51.9577 29.5185C53.2354 29.5185 54.3341 29.8267 55.2538 30.4432C56.1785 31.0597 56.8895 31.9545 57.3866 33.1278C57.8838 34.2962 58.1299 35.7131 58.1249 37.3786C58.1249 39.054 57.8763 40.4858 57.3792 41.674C56.887 42.8622 56.181 43.7695 55.2613 44.396C54.3415 45.0224 53.2403 45.3356 51.9577 45.3356ZM51.9577 42.6584C52.8327 42.6584 53.5312 42.2184 54.0532 41.3384C54.5752 40.4585 54.8337 39.1385 54.8287 37.3786C54.8287 36.2202 54.7094 35.2557 54.4708 34.4851C54.2371 33.7145 53.904 33.1353 53.4715 32.7475C53.0439 32.3597 52.5393 32.1658 51.9577 32.1658C51.0876 32.1658 50.3916 32.6009 49.8696 33.4709C49.3476 34.3409 49.0841 35.6435 49.0791 37.3786C49.0791 38.5518 49.1959 39.5312 49.4296 40.3168C49.6682 41.0973 50.0038 41.6839 50.4363 42.0767C50.8689 42.4645 51.376 42.6584 51.9577 42.6584Z" fill="white"/>
<defs>
<linearGradient id="paint0_linear_49_237" x1="37.5" y1="0" x2="37.5" y2="75" gradientUnits="userSpaceOnUse">
<stop offset="0.0817308"/>
<stop offset="0.394231" stop-color="#6D0405"/>
</linearGradient>
</defs>
</svg>
