<svg width="75" height="75" viewBox="0 0 75 75" fill="none" xmlns="http://www.w3.org/2000/svg">
<circle cx="37.5" cy="37.5" r="37.5" fill="url(#paint0_linear_49_281)"/>
<circle cx="38" cy="38" r="33" fill="black"/>
<path d="M16.8825 29.7273V45H13.6534V32.7923H13.5639L10.0664 34.9847V32.1211L13.8473 29.7273H16.8825ZM26.5006 45.3356C25.218 45.3306 24.1143 45.0149 23.1895 44.3885C22.2698 43.7621 21.5613 42.8548 21.0642 41.6665C20.572 40.4783 20.3284 39.049 20.3334 37.3786C20.3334 35.7131 20.5795 34.2937 21.0716 33.1204C21.5688 31.9471 22.2773 31.0547 23.197 30.4432C24.1217 29.8267 25.2229 29.5185 26.5006 29.5185C27.7783 29.5185 28.877 29.8267 29.7968 30.4432C30.7215 31.0597 31.4324 31.9545 31.9296 33.1278C32.4268 34.2962 32.6729 35.7131 32.6679 37.3786C32.6679 39.054 32.4193 40.4858 31.9221 41.674C31.43 42.8622 30.724 43.7695 29.8042 44.396C28.8845 45.0224 27.7833 45.3356 26.5006 45.3356ZM26.5006 42.6584C27.3756 42.6584 28.0741 42.2184 28.5961 41.3384C29.1182 40.4585 29.3767 39.1385 29.3717 37.3786C29.3717 36.2202 29.2524 35.2557 29.0138 34.4851C28.7801 33.7145 28.447 33.1353 28.0145 32.7475C27.5869 32.3597 27.0823 32.1658 26.5006 32.1658C25.6306 32.1658 24.9346 32.6009 24.4126 33.4709C23.8905 34.3409 23.627 35.6435 23.6221 37.3786C23.6221 38.5518 23.7389 39.5312 23.9726 40.3168C24.2112 41.0973 24.5468 41.6839 24.9793 42.0767C25.4118 42.4645 25.9189 42.6584 26.5006 42.6584ZM41.6522 29.0114L36.7303 47.2969H33.9934L38.9153 29.0114H41.6522ZM49.7975 29.7273V45H46.5684V32.7923H46.479L42.9814 34.9847V32.1211L46.7623 29.7273H49.7975ZM59.4157 45.3356C58.133 45.3306 57.0293 45.0149 56.1046 44.3885C55.1848 43.7621 54.4764 42.8548 53.9792 41.6665C53.487 40.4783 53.2434 39.049 53.2484 37.3786C53.2484 35.7131 53.4945 34.2937 53.9867 33.1204C54.4838 31.9471 55.1923 31.0547 56.112 30.4432C57.0368 29.8267 58.138 29.5185 59.4157 29.5185C60.6934 29.5185 61.7921 29.8267 62.7118 30.4432C63.6365 31.0597 64.3475 31.9545 64.8446 33.1278C65.3418 34.2962 65.5879 35.7131 65.5829 37.3786C65.5829 39.054 65.3343 40.4858 64.8372 41.674C64.345 42.8622 63.639 43.7695 62.7193 44.396C61.7995 45.0224 60.6983 45.3356 59.4157 45.3356ZM59.4157 42.6584C60.2907 42.6584 60.9892 42.2184 61.5112 41.3384C62.0332 40.4585 62.2917 39.1385 62.2868 37.3786C62.2868 36.2202 62.1674 35.2557 61.9288 34.4851C61.6951 33.7145 61.362 33.1353 60.9295 32.7475C60.502 32.3597 59.9973 32.1658 59.4157 32.1658C58.5456 32.1658 57.8496 32.6009 57.3276 33.4709C56.8056 34.3409 56.5421 35.6435 56.5371 37.3786C56.5371 38.5518 56.6539 39.5312 56.8876 40.3168C57.1262 41.0973 57.4618 41.6839 57.8944 42.0767C58.3269 42.4645 58.834 42.6584 59.4157 42.6584Z" fill="white"/>
<defs>
<linearGradient id="paint0_linear_49_281" x1="37.5" y1="0" x2="37.5" y2="75" gradientUnits="userSpaceOnUse">
<stop offset="0.05" stop-color="white"/>
<stop offset="0.1" stop-color="#06FF17"/>
<stop offset="0.2" stop-color="#00CB7A"/>
<stop offset="0.3" stop-color="#CBBA01"/>
<stop offset="0.4" stop-color="#DA5B00"/>
<stop offset="0.5" stop-color="#FE0104"/>
<stop offset="0.6" stop-color="#DF0104"/>
<stop offset="0.7" stop-color="#B40003"/>
<stop offset="0.8" stop-color="#810103"/>
<stop offset="0.9" stop-color="#6C0305"/>
<stop offset="1" stop-color="#B40103"/>
</linearGradient>
</defs>
</svg>
