<svg width="75" height="75" viewBox="0 0 75 75" fill="none" xmlns="http://www.w3.org/2000/svg">
<circle cx="37.5" cy="37.5" r="37.5" fill="url(#paint0_linear_49_241)"/>
<circle cx="38" cy="38" r="33" fill="black"/>
<path d="M15.2379 45V42.6733L20.6744 37.6396C21.1367 37.1921 21.5245 36.7894 21.8377 36.4315C22.1559 36.0735 22.397 35.723 22.5611 35.38C22.7251 35.032 22.8072 34.6566 22.8072 34.2539C22.8072 33.8065 22.7053 33.4212 22.5014 33.098C22.2976 32.7699 22.0192 32.5188 21.6662 32.3448C21.3132 32.1658 20.913 32.0763 20.4656 32.0763C19.9982 32.0763 19.5906 32.1708 19.2425 32.3597C18.8945 32.5487 18.6261 32.8196 18.4371 33.1726C18.2482 33.5256 18.1538 33.9457 18.1538 34.4329H15.0888C15.0888 33.4336 15.315 32.5661 15.7674 31.8303C16.2198 31.0945 16.8537 30.5252 17.669 30.1225C18.4844 29.7198 19.424 29.5185 20.4879 29.5185C21.5817 29.5185 22.5337 29.7124 23.3441 30.1001C24.1594 30.483 24.7933 31.0149 25.2457 31.696C25.6982 32.3771 25.9244 33.1577 25.9244 34.0376C25.9244 34.6143 25.81 35.1836 25.5813 35.7454C25.3576 36.3072 24.9574 36.9311 24.3807 37.6172C23.804 38.2983 22.9911 39.1161 21.9421 40.0707L19.7124 42.2557V42.3601H26.1257V45H15.2379ZM35.1473 29.0114L30.2254 47.2969H27.4885L32.4104 29.0114H35.1473ZM43.2926 29.7273V45H40.0636V32.7923H39.9741L36.4766 34.9847V32.1211L40.2575 29.7273H43.2926ZM52.9108 45.3356C51.6281 45.3306 50.5244 45.0149 49.5997 44.3885C48.68 43.7621 47.9715 42.8548 47.4743 41.6665C46.9822 40.4783 46.7385 39.049 46.7435 37.3786C46.7435 35.7131 46.9896 34.2937 47.4818 33.1204C47.979 31.9471 48.6874 31.0547 49.6072 30.4432C50.5319 29.8267 51.6331 29.5185 52.9108 29.5185C54.1885 29.5185 55.2872 29.8267 56.2069 30.4432C57.1317 31.0597 57.8426 31.9545 58.3398 33.1278C58.8369 34.2962 59.083 35.7131 59.078 37.3786C59.078 39.054 58.8295 40.4858 58.3323 41.674C57.8401 42.8622 57.1341 43.7695 56.2144 44.396C55.2947 45.0224 54.1934 45.3356 52.9108 45.3356ZM52.9108 42.6584C53.7858 42.6584 54.4843 42.2184 55.0063 41.3384C55.5283 40.4585 55.7868 39.1385 55.7819 37.3786C55.7819 36.2202 55.6626 35.2557 55.4239 34.4851C55.1903 33.7145 54.8572 33.1353 54.4246 32.7475C53.9971 32.3597 53.4925 32.1658 52.9108 32.1658C52.0407 32.1658 51.3447 32.6009 50.8227 33.4709C50.3007 34.3409 50.0372 35.6435 50.0322 37.3786C50.0322 38.5518 50.1491 39.5312 50.3827 40.3168C50.6214 41.0973 50.9569 41.6839 51.3895 42.0767C51.822 42.4645 52.3291 42.6584 52.9108 42.6584Z" fill="white"/>
<defs>
<linearGradient id="paint0_linear_49_241" x1="37.5" y1="0" x2="37.5" y2="75" gradientUnits="userSpaceOnUse">
<stop offset="0.0817308"/>
<stop offset="0.394231" stop-color="#810002"/>
</linearGradient>
</defs>
</svg>
