<svg width="75" height="75" viewBox="0 0 75 75" fill="none" xmlns="http://www.w3.org/2000/svg">
<circle cx="37.5" cy="37.5" r="37.5" fill="url(#paint0_linear_49_249)"/>
<circle cx="38" cy="38" r="33" fill="black"/>
<path d="M20.8832 45.2088C19.7695 45.2088 18.7777 45.0174 17.9077 44.6346C17.0426 44.2468 16.359 43.7148 15.8569 43.0387C15.3597 42.3576 15.1037 41.5721 15.0888 40.6822H18.3402C18.3601 41.055 18.4819 41.3832 18.7056 41.6665C18.9343 41.945 19.2376 42.1612 19.6154 42.3153C19.9933 42.4695 20.4183 42.5465 20.8906 42.5465C21.3828 42.5465 21.8178 42.4595 22.1957 42.2855C22.5735 42.1115 22.8693 41.8704 23.0831 41.5621C23.2969 41.2539 23.4038 40.8984 23.4038 40.4957C23.4038 40.0881 23.2894 39.7276 23.0607 39.4144C22.837 39.0962 22.5138 38.8477 22.0913 38.6687C21.6737 38.4897 21.1765 38.4002 20.5998 38.4002H19.1754V36.0288H20.5998C21.087 36.0288 21.517 35.9442 21.8899 35.7752C22.2678 35.6062 22.5611 35.3725 22.7699 35.0742C22.9787 34.771 23.0831 34.418 23.0831 34.0153C23.0831 33.6325 22.9911 33.2969 22.8072 33.0085C22.6282 32.7152 22.3746 32.4865 22.0465 32.3224C21.7234 32.1584 21.3455 32.0763 20.913 32.0763C20.4755 32.0763 20.0753 32.1559 19.7124 32.315C19.3494 32.4691 19.0586 32.6903 18.8398 32.9787C18.6211 33.267 18.5043 33.6051 18.4893 33.9929H15.3945C15.4094 33.1129 15.6605 32.3374 16.1477 31.6662C16.6349 30.995 17.2912 30.4705 18.1165 30.0927C18.9467 29.7099 19.8839 29.5185 20.9279 29.5185C21.9819 29.5185 22.9041 29.7099 23.6946 30.0927C24.4851 30.4755 25.0991 30.9925 25.5366 31.6438C25.979 32.2901 26.1978 33.016 26.1928 33.8214C26.1978 34.6765 25.9318 35.3899 25.3949 35.9616C24.8629 36.5334 24.1694 36.8963 23.3143 37.0504V37.1697C24.4379 37.3139 25.293 37.7042 25.8796 38.3406C26.4712 38.9719 26.7646 39.7624 26.7596 40.712C26.7646 41.582 26.5135 42.3551 26.0064 43.0312C25.5043 43.7074 24.8107 44.2393 23.9258 44.6271C23.0408 45.0149 22.0266 45.2088 20.8832 45.2088ZM35.7625 29.0114L30.8406 47.2969H28.1038L33.0257 29.0114H35.7625ZM43.9078 29.7273V45H40.6788V32.7923H40.5893L37.0918 34.9847V32.1211L40.8727 29.7273H43.9078ZM53.526 45.3356C52.2433 45.3306 51.1396 45.0149 50.2149 44.3885C49.2952 43.7621 48.5867 42.8548 48.0896 41.6665C47.5974 40.4783 47.3538 39.049 47.3588 37.3786C47.3588 35.7131 47.6048 34.2937 48.097 33.1204C48.5942 31.9471 49.3026 31.0547 50.2224 30.4432C51.1471 29.8267 52.2483 29.5185 53.526 29.5185C54.8037 29.5185 55.9024 29.8267 56.8222 30.4432C57.7469 31.0597 58.4578 31.9545 58.955 33.1278C59.4521 34.2962 59.6982 35.7131 59.6933 37.3786C59.6933 39.054 59.4447 40.4858 58.9475 41.674C58.4553 42.8622 57.7494 43.7695 56.8296 44.396C55.9099 45.0224 54.8087 45.3356 53.526 45.3356ZM53.526 42.6584C54.401 42.6584 55.0995 42.2184 55.6215 41.3384C56.1436 40.4585 56.4021 39.1385 56.3971 37.3786C56.3971 36.2202 56.2778 35.2557 56.0392 34.4851C55.8055 33.7145 55.4724 33.1353 55.0399 32.7475C54.6123 32.3597 54.1077 32.1658 53.526 32.1658C52.656 32.1658 51.96 32.6009 51.4379 33.4709C50.9159 34.3409 50.6524 35.6435 50.6475 37.3786C50.6475 38.5518 50.7643 39.5312 50.998 40.3168C51.2366 41.0973 51.5722 41.6839 52.0047 42.0767C52.4372 42.4645 52.9443 42.6584 53.526 42.6584Z" fill="white"/>
<defs>
<linearGradient id="paint0_linear_49_249" x1="37.5" y1="0" x2="37.5" y2="75" gradientUnits="userSpaceOnUse">
<stop offset="0.0817308"/>
<stop offset="0.394231" stop-color="#B50003"/>
</linearGradient>
</defs>
</svg>
