<svg width="75" height="75" viewBox="0 0 75 75" fill="none" xmlns="http://www.w3.org/2000/svg">
<circle cx="37.5" cy="37.5" r="37.5" fill="url(#paint0_linear_49_253)"/>
<circle cx="38" cy="38" r="33" fill="black"/>
<path d="M15.0067 42.3153V39.7724L21.3828 29.7273H23.5753V33.2472H22.2777L18.2582 39.6083V39.7276H27.3189V42.3153H15.0067ZM22.3374 45V41.5398L22.397 40.4137V29.7273H25.4247V45H22.3374ZM36.1522 29.0114L31.2303 47.2969H28.4934L33.4153 29.0114H36.1522ZM44.2975 29.7273V45H41.0684V32.7923H40.979L37.4814 34.9847V32.1211L41.2623 29.7273H44.2975ZM53.9157 45.3356C52.633 45.3306 51.5293 45.0149 50.6046 44.3885C49.6848 43.7621 48.9764 42.8548 48.4792 41.6665C47.987 40.4783 47.7434 39.049 47.7484 37.3786C47.7484 35.7131 47.9945 34.2937 48.4867 33.1204C48.9838 31.9471 49.6923 31.0547 50.612 30.4432C51.5368 29.8267 52.638 29.5185 53.9157 29.5185C55.1934 29.5185 56.2921 29.8267 57.2118 30.4432C58.1365 31.0597 58.8475 31.9545 59.3446 33.1278C59.8418 34.2962 60.0879 35.7131 60.0829 37.3786C60.0829 39.054 59.8343 40.4858 59.3372 41.674C58.845 42.8622 58.139 43.7695 57.2193 44.396C56.2995 45.0224 55.1983 45.3356 53.9157 45.3356ZM53.9157 42.6584C54.7907 42.6584 55.4892 42.2184 56.0112 41.3384C56.5332 40.4585 56.7917 39.1385 56.7868 37.3786C56.7868 36.2202 56.6674 35.2557 56.4288 34.4851C56.1951 33.7145 55.862 33.1353 55.4295 32.7475C55.002 32.3597 54.4973 32.1658 53.9157 32.1658C53.0456 32.1658 52.3496 32.6009 51.8276 33.4709C51.3056 34.3409 51.0421 35.6435 51.0371 37.3786C51.0371 38.5518 51.1539 39.5312 51.3876 40.3168C51.6262 41.0973 51.9618 41.6839 52.3944 42.0767C52.8269 42.4645 53.334 42.6584 53.9157 42.6584Z" fill="white"/>
<defs>
<linearGradient id="paint0_linear_49_253" x1="37.5" y1="0" x2="37.5" y2="75" gradientUnits="userSpaceOnUse">
<stop offset="0.0817308"/>
<stop offset="0.394231" stop-color="#DF0105"/>
</linearGradient>
</defs>
</svg>
