<svg width="75" height="75" viewBox="0 0 75 75" fill="none" xmlns="http://www.w3.org/2000/svg">
<circle cx="37.5" cy="37.5" r="37.5" fill="url(#paint0_linear_49_245)"/>
<circle cx="38" cy="38" r="33" fill="black"/>
<path d="M20.8161 45.2088C19.7621 45.2088 18.8224 45.0149 17.9972 44.6271C17.1768 44.2393 16.5256 43.7049 16.0433 43.0238C15.5611 42.3427 15.31 41.5621 15.2901 40.6822H18.4222C18.457 41.2738 18.7056 41.7536 19.168 42.1214C19.6303 42.4893 20.1797 42.6733 20.8161 42.6733C21.3232 42.6733 21.7706 42.5614 22.1584 42.3377C22.5511 42.109 22.8569 41.7933 23.0756 41.3906C23.2994 40.983 23.4112 40.5156 23.4112 39.9886C23.4112 39.4517 23.2969 38.9794 23.0682 38.5717C22.8445 38.1641 22.5337 37.8459 22.136 37.6172C21.7383 37.3885 21.2834 37.2717 20.7713 37.2667C20.3239 37.2667 19.8888 37.3587 19.4663 37.5426C19.0487 37.7266 18.723 37.9776 18.4893 38.2958L15.6183 37.7812L16.3416 29.7273H25.6783V32.3672H19.0039L18.6087 36.1928H18.6982C18.9666 35.815 19.3718 35.5018 19.9137 35.2532C20.4556 35.0046 21.0621 34.8803 21.7333 34.8803C22.6531 34.8803 23.4734 35.0966 24.1942 35.5291C24.9151 35.9616 25.4844 36.5558 25.902 37.3114C26.3196 38.0621 26.5259 38.9272 26.521 39.9066C26.5259 40.9357 26.2873 41.8505 25.805 42.6509C25.3278 43.4464 24.6591 44.0728 23.799 44.5302C22.9439 44.9826 21.9496 45.2088 20.8161 45.2088ZM35.4549 29.0114L30.533 47.2969H27.7962L32.718 29.0114H35.4549ZM43.6002 29.7273V45H40.3712V32.7923H40.2817L36.7842 34.9847V32.1211L40.5651 29.7273H43.6002ZM53.2184 45.3356C51.9357 45.3306 50.832 45.0149 49.9073 44.3885C48.9876 43.7621 48.2791 42.8548 47.782 41.6665C47.2898 40.4783 47.0462 39.049 47.0511 37.3786C47.0511 35.7131 47.2972 34.2937 47.7894 33.1204C48.2866 31.9471 48.995 31.0547 49.9148 30.4432C50.8395 29.8267 51.9407 29.5185 53.2184 29.5185C54.4961 29.5185 55.5948 29.8267 56.5146 30.4432C57.4393 31.0597 58.1502 31.9545 58.6474 33.1278C59.1445 34.2962 59.3906 35.7131 59.3857 37.3786C59.3857 39.054 59.1371 40.4858 58.6399 41.674C58.1477 42.8622 57.4418 43.7695 56.522 44.396C55.6023 45.0224 54.5011 45.3356 53.2184 45.3356ZM53.2184 42.6584C54.0934 42.6584 54.7919 42.2184 55.3139 41.3384C55.8359 40.4585 56.0945 39.1385 56.0895 37.3786C56.0895 36.2202 55.9702 35.2557 55.7315 34.4851C55.4979 33.7145 55.1648 33.1353 54.7322 32.7475C54.3047 32.3597 53.8001 32.1658 53.2184 32.1658C52.3484 32.1658 51.6523 32.6009 51.1303 33.4709C50.6083 34.3409 50.3448 35.6435 50.3398 37.3786C50.3398 38.5518 50.4567 39.5312 50.6903 40.3168C50.929 41.0973 51.2646 41.6839 51.6971 42.0767C52.1296 42.4645 52.6367 42.6584 53.2184 42.6584Z" fill="white"/>
<defs>
<linearGradient id="paint0_linear_49_245" x1="37.5" y1="0" x2="37.5" y2="75" gradientUnits="userSpaceOnUse">
<stop offset="0.0817308"/>
<stop offset="0.394231" stop-color="#FF0004"/>
</linearGradient>
</defs>
</svg>
