<svg width="75" height="75" viewBox="0 0 75 75" fill="none" xmlns="http://www.w3.org/2000/svg">
<circle cx="37.5" cy="37.5" r="37.5" fill="url(#paint0_linear_49_261)"/>
<circle cx="38" cy="38" r="33" fill="black"/>
<path d="M21.0994 45.2088C20.3139 45.2038 19.5558 45.0721 18.8249 44.8136C18.0991 44.555 17.4478 44.1349 16.8711 43.5533C16.2944 42.9716 15.837 42.201 15.4989 41.2415C15.1658 40.282 14.9993 39.1037 14.9993 37.7067C15.0043 36.424 15.1509 35.2781 15.4393 34.2688C15.7326 33.2546 16.1502 32.3945 16.6921 31.6886C17.239 30.9826 17.8928 30.4457 18.6534 30.0778C19.4141 29.7049 20.2667 29.5185 21.2113 29.5185C22.2305 29.5185 23.1303 29.7173 23.9109 30.1151C24.6914 30.5078 25.3178 31.0423 25.7901 31.7184C26.2674 32.3945 26.5558 33.1527 26.6552 33.9929H23.4709C23.3466 33.4609 23.0856 33.0433 22.6879 32.7401C22.2901 32.4368 21.7979 32.2852 21.2113 32.2852C20.217 32.2852 19.4613 32.7177 18.9442 33.5827C18.4322 34.4478 18.1712 35.6236 18.1612 37.1101H18.2656C18.4943 36.6577 18.8026 36.2724 19.1903 35.9542C19.5831 35.631 20.0281 35.3849 20.5252 35.2159C21.0273 35.0419 21.5568 34.9549 22.1136 34.9549C23.0185 34.9549 23.8239 35.1687 24.5298 35.5962C25.2358 36.0188 25.7926 36.6005 26.2003 37.3413C26.608 38.082 26.8118 38.9297 26.8118 39.8842C26.8118 40.9183 26.5707 41.8381 26.0884 42.6435C25.6112 43.4489 24.9425 44.0803 24.0824 44.5376C23.2273 44.9901 22.233 45.2138 21.0994 45.2088ZM21.0845 42.6733C21.5817 42.6733 22.0266 42.554 22.4194 42.3153C22.8121 42.0767 23.1204 41.7536 23.3441 41.3459C23.5678 40.9382 23.6797 40.4808 23.6797 39.9737C23.6797 39.4666 23.5678 39.0117 23.3441 38.609C23.1254 38.2063 22.8221 37.8857 22.4343 37.647C22.0465 37.4084 21.604 37.2891 21.1069 37.2891C20.734 37.2891 20.3885 37.3587 20.0703 37.4979C19.7571 37.6371 19.4812 37.831 19.2425 38.0795C19.0089 38.3281 18.8249 38.6165 18.6907 38.9446C18.5565 39.2678 18.4893 39.6133 18.4893 39.9812C18.4893 40.4734 18.6012 40.9233 18.8249 41.331C19.0536 41.7386 19.3619 42.0643 19.7496 42.3079C20.1424 42.5515 20.5874 42.6733 21.0845 42.6733ZM35.783 29.0114L30.8612 47.2969H28.1243L33.0462 29.0114H35.783ZM43.9284 29.7273V45H40.6993V32.7923H40.6098L37.1123 34.9847V32.1211L40.8932 29.7273H43.9284ZM53.5465 45.3356C52.2638 45.3306 51.1602 45.0149 50.2354 44.3885C49.3157 43.7621 48.6072 42.8548 48.1101 41.6665C47.6179 40.4783 47.3743 39.049 47.3793 37.3786C47.3793 35.7131 47.6254 34.2937 48.1175 33.1204C48.6147 31.9471 49.3232 31.0547 50.2429 30.4432C51.1676 29.8267 52.2688 29.5185 53.5465 29.5185C54.8242 29.5185 55.9229 29.8267 56.8427 30.4432C57.7674 31.0597 58.4783 31.9545 58.9755 33.1278C59.4727 34.2962 59.7188 35.7131 59.7138 37.3786C59.7138 39.054 59.4652 40.4858 58.968 41.674C58.4759 42.8622 57.7699 43.7695 56.8501 44.396C55.9304 45.0224 54.8292 45.3356 53.5465 45.3356ZM53.5465 42.6584C54.4215 42.6584 55.12 42.2184 55.642 41.3384C56.1641 40.4585 56.4226 39.1385 56.4176 37.3786C56.4176 36.2202 56.2983 35.2557 56.0597 34.4851C55.826 33.7145 55.4929 33.1353 55.0604 32.7475C54.6328 32.3597 54.1282 32.1658 53.5465 32.1658C52.6765 32.1658 51.9805 32.6009 51.4585 33.4709C50.9364 34.3409 50.6729 35.6435 50.668 37.3786C50.668 38.5518 50.7848 39.5312 51.0185 40.3168C51.2571 41.0973 51.5927 41.6839 52.0252 42.0767C52.4577 42.4645 52.9648 42.6584 53.5465 42.6584Z" fill="white"/>
<defs>
<linearGradient id="paint0_linear_49_261" x1="37.5" y1="0" x2="37.5" y2="75" gradientUnits="userSpaceOnUse">
<stop offset="0.0817308"/>
<stop offset="0.394231" stop-color="#DA5B00"/>
</linearGradient>
</defs>
</svg>
