<svg width="75" height="75" viewBox="0 0 75 75" fill="none" xmlns="http://www.w3.org/2000/svg">
<circle cx="37.5" cy="37.5" r="37.5" fill="url(#paint0_linear_49_269)"/>
<circle cx="38" cy="38" r="33" fill="black"/>
<path d="M16.842 45L23.1733 32.4716V32.3672H15.7979V29.7273H26.5142V32.4045L20.1754 45H16.842ZM35.409 29.0114L30.4871 47.2969H27.7503L32.6721 29.0114H35.409ZM43.5543 29.7273V45H40.3253V32.7923H40.2358L36.7383 34.9847V32.1211L40.5192 29.7273H43.5543ZM53.1725 45.3356C51.8898 45.3306 50.7861 45.0149 49.8614 44.3885C48.9417 43.7621 48.2332 42.8548 47.7361 41.6665C47.2439 40.4783 47.0003 39.049 47.0052 37.3786C47.0052 35.7131 47.2513 34.2937 47.7435 33.1204C48.2407 31.9471 48.9491 31.0547 49.8689 30.4432C50.7936 29.8267 51.8948 29.5185 53.1725 29.5185C54.4502 29.5185 55.5489 29.8267 56.4687 30.4432C57.3934 31.0597 58.1043 31.9545 58.6015 33.1278C59.0986 34.2962 59.3447 35.7131 59.3398 37.3786C59.3398 39.054 59.0912 40.4858 58.594 41.674C58.1018 42.8622 57.3959 43.7695 56.4761 44.396C55.5564 45.0224 54.4552 45.3356 53.1725 45.3356ZM53.1725 42.6584C54.0475 42.6584 54.746 42.2184 55.268 41.3384C55.79 40.4585 56.0486 39.1385 56.0436 37.3786C56.0436 36.2202 55.9243 35.2557 55.6856 34.4851C55.452 33.7145 55.1189 33.1353 54.6863 32.7475C54.2588 32.3597 53.7542 32.1658 53.1725 32.1658C52.3025 32.1658 51.6064 32.6009 51.0844 33.4709C50.5624 34.3409 50.2989 35.6435 50.2939 37.3786C50.2939 38.5518 50.4108 39.5312 50.6444 40.3168C50.8831 41.0973 51.2187 41.6839 51.6512 42.0767C52.0837 42.4645 52.5908 42.6584 53.1725 42.6584Z" fill="white"/>
<defs>
<linearGradient id="paint0_linear_49_269" x1="37.5" y1="0" x2="37.5" y2="75" gradientUnits="userSpaceOnUse">
<stop offset="0.0817308"/>
<stop offset="0.394231" stop-color="#CCBB00"/>
</linearGradient>
</defs>
</svg>
