<svg width="75" height="75" viewBox="0 0 75 75" fill="none" xmlns="http://www.w3.org/2000/svg">
<circle cx="37.5" cy="37.5" r="37.5" fill="url(#paint0_linear_49_265)"/>
<circle cx="38" cy="38" r="33" fill="black"/>
<path d="M20.9354 45.2088C19.7869 45.2088 18.7653 45.0224 17.8704 44.6495C16.9805 44.2717 16.282 43.7571 15.7749 43.1058C15.2678 42.4545 15.0142 41.7163 15.0142 40.891C15.0142 40.2546 15.1584 39.6705 15.4467 39.1385C15.7401 38.6016 16.1378 38.1566 16.6399 37.8036C17.142 37.4457 17.7038 37.217 18.3253 37.1175V37.0131C17.5099 36.8491 16.8487 36.4538 16.3416 35.8274C15.8345 35.196 15.581 34.4627 15.581 33.6275C15.581 32.837 15.8121 32.1335 16.2745 31.517C16.7369 30.8956 17.3707 30.4084 18.1761 30.0554C18.9865 29.6974 19.9062 29.5185 20.9354 29.5185C21.9645 29.5185 22.8817 29.6974 23.6871 30.0554C24.4975 30.4134 25.1339 30.9031 25.5962 31.5245C26.0586 32.141 26.2923 32.842 26.2972 33.6275C26.2923 34.4677 26.0337 35.201 25.5217 35.8274C25.0096 36.4538 24.3533 36.8491 23.5529 37.0131V37.1175C24.1644 37.217 24.7188 37.4457 25.2159 37.8036C25.718 38.1566 26.1158 38.6016 26.4091 39.1385C26.7074 39.6705 26.859 40.2546 26.864 40.891C26.859 41.7163 26.603 42.4545 26.0959 43.1058C25.5888 43.7571 24.8878 44.2717 23.9929 44.6495C23.103 45.0224 22.0838 45.2088 20.9354 45.2088ZM20.9354 42.8374C21.4474 42.8374 21.8949 42.7454 22.2777 42.5614C22.6605 42.3725 22.9588 42.114 23.1726 41.7859C23.3913 41.4528 23.5007 41.07 23.5007 40.6374C23.5007 40.195 23.3888 39.8047 23.1651 39.4666C22.9414 39.1236 22.6381 38.8551 22.2553 38.6612C21.8725 38.4624 21.4325 38.3629 20.9354 38.3629C20.4432 38.3629 20.0032 38.4624 19.6154 38.6612C19.2276 38.8551 18.9219 39.1236 18.6982 39.4666C18.4794 39.8047 18.37 40.195 18.37 40.6374C18.37 41.07 18.4769 41.4528 18.6907 41.7859C18.9045 42.114 19.2053 42.3725 19.593 42.5614C19.9808 42.7454 20.4283 42.8374 20.9354 42.8374ZM20.9354 36.0138C21.3629 36.0138 21.7433 35.9268 22.0763 35.7528C22.4094 35.5788 22.6705 35.3377 22.8594 35.0295C23.0483 34.7212 23.1428 34.3658 23.1428 33.9631C23.1428 33.5653 23.0483 33.2173 22.8594 32.919C22.6705 32.6158 22.4119 32.3796 22.0838 32.2106C21.7557 32.0366 21.3729 31.9496 20.9354 31.9496C20.5028 31.9496 20.12 32.0366 19.7869 32.2106C19.4538 32.3796 19.1928 32.6158 19.0039 32.919C18.82 33.2173 18.728 33.5653 18.728 33.9631C18.728 34.3658 18.8224 34.7212 19.0114 35.0295C19.2003 35.3377 19.4613 35.5788 19.7944 35.7528C20.1275 35.9268 20.5078 36.0138 20.9354 36.0138ZM35.8035 29.0114L30.8817 47.2969H28.1448L33.0667 29.0114H35.8035ZM43.9489 29.7273V45H40.7198V32.7923H40.6303L37.1328 34.9847V32.1211L40.9137 29.7273H43.9489ZM53.567 45.3356C52.2844 45.3306 51.1807 45.0149 50.2559 44.3885C49.3362 43.7621 48.6278 42.8548 48.1306 41.6665C47.6384 40.4783 47.3948 39.049 47.3998 37.3786C47.3998 35.7131 47.6459 34.2937 48.1381 33.1204C48.6352 31.9471 49.3437 31.0547 50.2634 30.4432C51.1881 29.8267 52.2893 29.5185 53.567 29.5185C54.8447 29.5185 55.9434 29.8267 56.8632 30.4432C57.7879 31.0597 58.4988 31.9545 58.996 33.1278C59.4932 34.2962 59.7393 35.7131 59.7343 37.3786C59.7343 39.054 59.4857 40.4858 58.9885 41.674C58.4964 42.8622 57.7904 43.7695 56.8707 44.396C55.9509 45.0224 54.8497 45.3356 53.567 45.3356ZM53.567 42.6584C54.442 42.6584 55.1405 42.2184 55.6626 41.3384C56.1846 40.4585 56.4431 39.1385 56.4381 37.3786C56.4381 36.2202 56.3188 35.2557 56.0802 34.4851C55.8465 33.7145 55.5134 33.1353 55.0809 32.7475C54.6533 32.3597 54.1487 32.1658 53.567 32.1658C52.697 32.1658 52.001 32.6009 51.479 33.4709C50.9569 34.3409 50.6934 35.6435 50.6885 37.3786C50.6885 38.5518 50.8053 39.5312 51.039 40.3168C51.2776 41.0973 51.6132 41.6839 52.0457 42.0767C52.4782 42.4645 52.9854 42.6584 53.567 42.6584Z" fill="white"/>
<defs>
<linearGradient id="paint0_linear_49_265" x1="37.5" y1="0" x2="37.5" y2="75" gradientUnits="userSpaceOnUse">
<stop offset="0.0817308"/>
<stop offset="0.394231" stop-color="#00CC7A"/>
</linearGradient>
</defs>
</svg>
