<svg width="75" height="75" viewBox="0 0 75 75" fill="none" xmlns="http://www.w3.org/2000/svg">
<circle cx="37.5" cy="37.5" r="37.5" fill="url(#paint0_linear_49_277)"/>
<circle cx="38" cy="38" r="33" fill="black"/>
<path d="M20.7638 29.5185C21.5494 29.5185 22.305 29.6502 23.0309 29.9137C23.7617 30.1772 24.413 30.5973 24.9847 31.174C25.5614 31.7507 26.0163 32.5163 26.3494 33.4709C26.6875 34.4205 26.859 35.5863 26.864 36.9684C26.864 38.266 26.7173 39.4244 26.424 40.4435C26.1357 41.4577 25.7205 42.3203 25.1786 43.0312C24.6367 43.7422 23.983 44.2841 23.2173 44.657C22.4517 45.0249 21.5966 45.2088 20.652 45.2088C19.6328 45.2088 18.733 45.0124 17.9524 44.6197C17.1719 44.2219 16.543 43.6825 16.0657 43.0014C15.5934 42.3153 15.3075 41.5447 15.2081 40.6896H18.3924C18.5167 41.2464 18.7777 41.679 19.1754 41.9872C19.5732 42.2905 20.0653 42.4421 20.652 42.4421C21.6463 42.4421 22.402 42.0096 22.919 41.1445C23.4361 40.2745 23.6971 39.0838 23.7021 37.5724H23.5977C23.369 38.0199 23.0607 38.4052 22.6729 38.7283C22.2852 39.0465 21.8402 39.2926 21.3381 39.4666C20.8409 39.6406 20.3114 39.7276 19.7496 39.7276C18.8498 39.7276 18.0469 39.5163 17.3409 39.0938C16.6349 38.6712 16.0781 38.0895 15.6705 37.3487C15.2628 36.608 15.0589 35.7628 15.0589 34.8132C15.054 33.7891 15.2901 32.8768 15.7674 32.0763C16.2447 31.2759 16.9109 30.6495 17.766 30.1971C18.6261 29.7397 19.6254 29.5135 20.7638 29.5185ZM20.7862 32.054C20.2841 32.054 19.8366 32.1733 19.4439 32.4119C19.0561 32.6506 18.7479 32.9712 18.5192 33.3739C18.2955 33.7766 18.1861 34.2266 18.1911 34.7237C18.1911 35.2259 18.3004 35.6783 18.5192 36.081C18.7429 36.4787 19.0462 36.7969 19.429 37.0355C19.8168 37.2692 20.2592 37.386 20.7564 37.386C21.1293 37.386 21.4748 37.3164 21.793 37.1772C22.1112 37.038 22.3871 36.8466 22.6207 36.603C22.8594 36.3544 23.0458 36.0685 23.18 35.7454C23.3143 35.4222 23.3814 35.0792 23.3814 34.7163C23.3764 34.234 23.2621 33.7915 23.0384 33.3888C22.8146 32.9862 22.5064 32.663 22.1136 32.4194C21.7209 32.1758 21.2784 32.054 20.7862 32.054ZM35.783 29.0114L30.8612 47.2969H28.1243L33.0462 29.0114H35.783ZM43.9284 29.7273V45H40.6993V32.7923H40.6098L37.1123 34.9847V32.1211L40.8932 29.7273H43.9284ZM53.5465 45.3356C52.2638 45.3306 51.1602 45.0149 50.2354 44.3885C49.3157 43.7621 48.6072 42.8548 48.1101 41.6665C47.6179 40.4783 47.3743 39.049 47.3793 37.3786C47.3793 35.7131 47.6254 34.2937 48.1175 33.1204C48.6147 31.9471 49.3232 31.0547 50.2429 30.4432C51.1676 29.8267 52.2688 29.5185 53.5465 29.5185C54.8242 29.5185 55.9229 29.8267 56.8427 30.4432C57.7674 31.0597 58.4783 31.9545 58.9755 33.1278C59.4727 34.2962 59.7188 35.7131 59.7138 37.3786C59.7138 39.054 59.4652 40.4858 58.968 41.674C58.4759 42.8622 57.7699 43.7695 56.8501 44.396C55.9304 45.0224 54.8292 45.3356 53.5465 45.3356ZM53.5465 42.6584C54.4215 42.6584 55.12 42.2184 55.642 41.3384C56.1641 40.4585 56.4226 39.1385 56.4176 37.3786C56.4176 36.2202 56.2983 35.2557 56.0597 34.4851C55.826 33.7145 55.4929 33.1353 55.0604 32.7475C54.6328 32.3597 54.1282 32.1658 53.5465 32.1658C52.6765 32.1658 51.9805 32.6009 51.4585 33.4709C50.9364 34.3409 50.6729 35.6435 50.668 37.3786C50.668 38.5518 50.7848 39.5312 51.0185 40.3168C51.2571 41.0973 51.5927 41.6839 52.0252 42.0767C52.4577 42.4645 52.9648 42.6584 53.5465 42.6584Z" fill="white"/>
<defs>
<linearGradient id="paint0_linear_49_277" x1="37.5" y1="0" x2="37.5" y2="75" gradientUnits="userSpaceOnUse">
<stop offset="0.0817308"/>
<stop offset="0.394231" stop-color="#06FF17"/>
</linearGradient>
</defs>
</svg>
